{
  "asset": {
    "version": "2.0",
    "generator": "THREE.GLTFExporter"
  },
  "scenes": [
    {
      "name": "AuxScene",
      "nodes": [
        0
      ]
    }
  ],
  "scene": 0,
  "nodes": [
    {
      "matrix": [
        1,
        0,
        0,
        0,
        0,
        1,
        0,
        0,
        0,
        0,
        1,
        0,
        0.016889572143554688,
        -0.7504816055297852,
        1.8875617980957031,
        1
      ],
      "name": "spider_cookie",
      "extras": {
        "name": "spider_cookie"
      },
      "mesh": 0
    }
  ],
  "bufferViews": [
    {
      "buffer": 0,
      "byteOffset": 0,
      "byteLength": 87120,
      "target": 34962,
      "byteStride": 12
    },
    {
      "buffer": 0,
      "byteOffset": 87120,
      "byteLength": 87120,
      "target": 34962,
      "byteStride": 12
    },
    {
      "buffer": 0,
      "byteOffset": 174240,
      "byteLength": 58080,
      "target": 34962,
      "byteStride": 8
    },
    {
      "buffer": 0,
      "byteOffset": 232320,
      "byteLength": 16728,
      "target": 34963
    }
  ],
  "buffers": [
    {
      "byteLength": 249048,
      "uri": "data:application/octet-stream;base64,"
    }
  ],
  "accessors": [
    {
      "bufferView": 0,
      "componentType": 5126,
      "count": 7260,
      "max": [
        12.96878433227539,
        3.8345093727111816,
        12.968785285949707
      ],
      "min": [
        -12.96878433227539,
        -3.8345093727111816,
        -12.968785285949707
      ],
      "type": "VEC3"
    },
    {
      "bufferView": 1,
      "componentType": 5126,
      "count": 7260,
      "max": [
        0.9999935030937195,
        1,
        0.9999935030937195
      ],
      "min": [
        -0.9999935030937195,
        -1,
        -0.9999935030937195
      ],
      "type": "VEC3"
    },
    {
      "bufferView": 2,
      "componentType": 5126,
      "count": 7260,
      "max": [
        0.9946889877319336,
        -0.0048830509185791016
      ],
      "min": [
        0.004883000161498785,
        -0.9902089834213257
      ],
      "type": "VEC2"
    },
    {
      "bufferView": 3,
      "componentType": 5123,
      "count": 8364,
      "max": [
        7259
      ],
      "min": [
        0
      ],
      "type": "SCALAR"
    }
  ],
  "materials": [
    {
      "pbrMetallicRoughness": {
        "metallicFactor": 1,
        "roughnessFactor": 1
      }
    }
  ],
  "meshes": [
    {
      "primitives": [
        {
          "mode": 4,
          "attributes": {
            "POSITION": 0,
            "NORMAL": 1,
            "TEXCOORD_0": 2
          },
          "indices": 3,
          "material": 0
        }
      ]
    }
  ]
}